<?xml version="1.0" encoding="UTF-8" standalone="no"?>
<!-- Created with Inkscape (http://www.inkscape.org/) -->

<svg
   width="1024"
   height="1024"
   viewBox="0 0 270.93333 270.93333"
   version="1.1"
   id="svg1"
   sodipodi:docname="splat_4.svg"
   inkscape:version="1.3.2 (091e20e, 2023-11-25, custom)"
   xmlns:inkscape="http://www.inkscape.org/namespaces/inkscape"
   xmlns:sodipodi="http://sodipodi.sourceforge.net/DTD/sodipodi-0.dtd"
   xmlns="http://www.w3.org/2000/svg"
   xmlns:svg="http://www.w3.org/2000/svg">
  <sodipodi:namedview
     id="namedview1"
     pagecolor="#ffffff"
     bordercolor="#000000"
     borderopacity="0.25"
     inkscape:showpageshadow="2"
     inkscape:pageopacity="0.0"
     inkscape:pagecheckerboard="true"
     inkscape:deskcolor="#d1d1d1"
     inkscape:document-units="px"
     inkscape:zoom="0.72426347"
     inkscape:cx="395.57428"
     inkscape:cy="561.25984"
     inkscape:window-width="1920"
     inkscape:window-height="1009"
     inkscape:window-x="1912"
     inkscape:window-y="-8"
     inkscape:window-maximized="1"
     inkscape:current-layer="layer1" />
  <defs
     id="defs1" />
  <g
     inkscape:label="Layer 1"
     inkscape:groupmode="layer"
     id="layer1">
    <path
       stroke="none"
       fill="#ffcc00"
       d="m 41.129105,55.932668 q 5.165159,2.412137 10.576391,1.142537 5.534123,-1.396459 9.100523,-5.966737 3.566493,-4.443311 3.812474,-10.156125 0.246345,-5.712827 -2.95155,-10.537015 l -3.320514,-5.332034 q -2.213608,-4.062445 -1.10681,-8.505743 1.10681,-4.570278 5.042186,-6.9823297 3.935446,-2.285182 8.36277,-1.142646 4.304329,1.142646 6.640934,5.2050787 7.501857,13.329944 12.544114,32.3728 1.598771,6.60144 7.255889,10.283092 5.657108,3.554698 12.175058,2.158129 6.51804,-1.269503 10.33042,-6.982329 3.81247,-5.458892 2.95154,-12.314352 L 121.18975,25.21025 q 0,-5.458904 3.81248,-9.394467 3.68938,-3.935478 8.97762,-3.935478 5.28815,0 9.10061,3.935478 3.81238,3.935563 3.81238,9.394467 l -1.22979,12.949163 q -0.86083,6.347615 2.58257,11.806519 3.44351,5.458891 9.59248,7.109273 6.02609,1.777348 11.68321,-1.142537 5.65721,-2.792929 8.1168,-8.632711 l 1.96772,-4.316355 q 1.96764,-4.316453 6.27198,-5.712912 l 8.36278,0.507651 q 3.44341,1.904304 5.04217,5.585956 1.59875,3.554588 0.61541,7.490163 -1.35279,5.458904 0.61447,10.537003 1.96774,5.331948 6.51805,8.251845 4.55029,3.04684 9.96144,2.793015 5.53413,-0.380975 9.59258,-3.935563 12.54403,-10.41006 17.58629,-13.4569 4.67329,-2.665974 9.71547,-1.269515 5.16525,1.523426 7.74783,6.220659 2.70557,4.697233 1.35278,10.02917 -1.35278,5.332034 -5.9031,7.998008 -8.23969,4.824201 -41.19866,16.884629 -5.7801,2.158142 -8.85463,7.617129 -3.07455,5.45891 -1.96774,11.67957 1.1069,6.22064 5.78011,10.28308 4.79628,4.06252 10.94536,3.93556 l 11.19124,0.50766 q 4.42733,0.38097 7.37888,4.06243 2.95154,3.55459 2.45967,8.12488 -0.36906,4.69722 -3.81246,7.61711 -3.5664,2.91999 -7.99373,2.53911 l -2.3367,-0.12668 q -4.5503,-0.50765 -8.73165,1.39647 -4.30433,1.90431 -6.8869,5.83977 -2.70558,3.93548 -2.95155,8.75968 -0.36907,4.69722 1.72176,9.01358 1.22979,2.15824 0,4.31645 -0.86085,1.39647 -1.96774,1.90422 -6.27206,2.79292 -8.85465,9.64838 -2.33659,6.85537 0.49177,13.32994 1.3528,2.9199 0.98383,6.09371 -0.36907,3.30077 -2.45959,5.83978 -2.95155,3.55468 -7.37887,3.93556 -4.55031,0.38099 -7.99381,-2.5391 l -5.41114,-5.07802 q -3.93545,-3.93557 -9.22361,-4.82419 -5.28814,-0.76196 -10.20743,1.77734 -4.79628,2.53901 -7.13289,7.49016 -2.45959,4.95116 -1.72174,10.53702 2.09071,13.96474 2.09071,19.80452 0,7.23624 -4.91927,12.31436 -4.91928,5.07801 -12.05217,5.07801 -6.8869,0 -11.80619,-5.07801 -5.04216,-4.95115 -5.04216,-12.31436 l 0.36906,-5.45898 q 0.36904,-4.95108 -1.72176,-9.26742 -2.2137,-4.44332 -6.14908,-6.98243 -4.05835,-2.539 -8.85464,-2.539 -4.796283,0 -8.854643,2.539 -3.074534,2.03128 -6.886902,1.6504 -3.812474,-0.50766 -6.518043,-3.30078 -2.582585,-2.66597 -2.951549,-6.22067 -0.614473,-4.44331 -3.320514,-7.9979 -2.582573,-3.68165 -6.640921,-5.459 -3.935376,-1.9043 -8.362688,-1.2695 -4.30434,0.38099 -7.870834,2.9199 l -4.550308,3.04685 q -6.026083,3.68164 -12.79,1.77735 -6.764024,-1.90432 -10.330411,-8.12498 -3.44351,-6.22066 -1.598759,-13.20298 1.844727,-6.98233 7.747826,-10.66398 4.427324,-2.66597 15.741549,-7.23624 5.657119,-2.28518 8.608657,-7.99801 2.828577,-5.71281 1.475786,-11.93347 -1.35279,-6.22066 -6.395047,-10.02927 -5.042186,-3.80852 -11.191241,-3.30077 l -3.68949,0.25431 q -4.550214,0.12667 -7.870728,-3.04685 -3.320514,-3.17372 -3.443498,-7.74399 -0.246357,-3.5547 1.721743,-6.60155 3.935364,-6.09369 2.336605,-13.20297 -1.35279,-7.10929 -7.501858,-10.917894 -7.993723,-5.078124 -10.2074263,-14.472481 -2.213609,-9.521434 2.5826793,-17.90032 4.427312,-7.744085 12.79,-10.537015 8.362688,-2.792929 16.23351,0.761951"
       id="path1-2"
       style="fill:#ffffff;stroke-width:2.49901" />
  </g>
</svg>
