<?xml version="1.0" encoding="UTF-8" standalone="no"?>
<!-- Created with Inkscape (http://www.inkscape.org/) -->

<svg
   width="1024"
   height="1024"
   viewBox="0 0 270.93333 270.93333"
   version="1.1"
   id="svg1"
   sodipodi:docname="splat_3.svg"
   inkscape:version="1.3.2 (091e20e, 2023-11-25, custom)"
   xmlns:inkscape="http://www.inkscape.org/namespaces/inkscape"
   xmlns:sodipodi="http://sodipodi.sourceforge.net/DTD/sodipodi-0.dtd"
   xmlns="http://www.w3.org/2000/svg"
   xmlns:svg="http://www.w3.org/2000/svg">
  <sodipodi:namedview
     id="namedview1"
     pagecolor="#ffffff"
     bordercolor="#000000"
     borderopacity="0.25"
     inkscape:showpageshadow="2"
     inkscape:pageopacity="0.0"
     inkscape:pagecheckerboard="true"
     inkscape:deskcolor="#d1d1d1"
     inkscape:document-units="px"
     inkscape:zoom="0.72426347"
     inkscape:cx="395.57428"
     inkscape:cy="561.25984"
     inkscape:window-width="1920"
     inkscape:window-height="1009"
     inkscape:window-x="1912"
     inkscape:window-y="-8"
     inkscape:window-maximized="1"
     inkscape:current-layer="layer1" />
  <defs
     id="defs1" />
  <g
     inkscape:label="Layer 1"
     inkscape:groupmode="layer"
     id="layer1">
    <path
       stroke="none"
       fill="#ffcc00"
       d="m 66.958509,95.00678 8.69639,-0.43468 q 4.34824,-1.84795 6.19626,-6.08747 1.95665,-4.23953 0.43468,-8.58776 -1.41317,-4.56558 -5.43527,-6.84837 -15.653554,-8.80519 -25.871913,-19.02346 -4.13073,-4.13073 -4.239442,-10.10957 -0.108466,-5.87004 4.130812,-10.00085 4.130731,-4.23952 10.109565,-4.34824 5.761329,0 10.000854,4.13081 8.913814,8.58768 16.849304,21.5236 1.95673,2.93506 5.21785,4.45695 3.2612,1.52188 6.73974,1.08704 3.587251,-0.54315 6.304881,-2.82635 2.71763,-2.3915 3.58733,-5.76133 0.65244,-2.39151 2.50022,-4.0221 1.73923,-1.73931 4.1308,-2.3915 3.69597,-0.97841 6.95708,0.86961 3.36992,1.95674 4.34824,5.6527 l 1.52189,8.91381 q 0.54397,4.45687 3.91339,7.50065 3.36983,3.04377 8.0442,3.04377 4.45686,0 7.93541,-2.82635 3.3699,-3.04378 4.02218,-7.50064 l 0.54315,-3.36991 q 0.65243,-3.1524 3.47862,-4.89172 2.60892,-1.84802 5.87004,-1.19574 3.15248,0.65243 5.00043,3.36983 1.84802,2.71763 1.19574,5.97883 -1.63051,7.71807 -5.5439,16.95801 -1.95674,4.34815 -0.43468,8.80511 1.52188,4.56566 5.65262,6.63102 4.13081,2.28279 8.80518,1.19575 4.56558,-1.08704 7.06579,-5.10914 36.95981,-56.2006 47.39551,-66.74502 5.21785,-5.10913 12.50107,-5.00043 7.39201,0 12.60986,5.10915 5.10914,5.10913 5.10914,12.50106 -0.10847,7.2833 -5.21785,12.39244 -8.80511,8.91382 -50.54791,36.74237 -2.93506,1.95666 -4.23953,5.21786 -1.41317,3.1524 -0.86962,6.73974 0.54316,3.47853 2.82628,6.08745 2.39157,2.71765 5.7614,3.58727 2.17409,0.65243 3.69597,2.39149 1.52188,1.6306 1.84802,3.91339 0.54315,3.15249 -1.30446,5.87012 -1.84802,2.60893 -5.10914,3.26113 l -18.58861,0.76089 q -3.47854,-0.21775 -6.63103,1.73931 -3.15249,1.73932 -4.67429,4.89172 -1.41318,2.60901 -3.47863,4.23952 -3.26111,2.28288 -4.34823,5.97884 -1.19576,3.80467 0.10846,7.50064 l 0.54398,2.3915 q 0.32622,4.34823 3.36983,7.50072 3.04377,3.04369 7.392,3.47854 29.35038,2.93506 49.89573,12.39235 6.52231,3.04378 9.02253,9.89223 2.39149,6.63103 -0.65245,13.15334 -2.93506,6.52231 -9.78342,9.02252 -6.63103,2.39151 -13.26205,-0.65243 -13.47948,-6.30489 -27.28501,-17.39287 -3.15249,-2.50021 -7.06588,-2.60892 -4.13081,-0.21775 -7.39192,2.17408 -3.36991,2.28286 -4.67438,6.19625 -1.08704,3.9134 0.10847,7.60935 l 0.65244,1.84795 q 1.30446,4.8918 -1.30447,9.23995 -2.3915,4.45695 -7.392,5.76141 -4.78301,1.30446 -9.23996,-1.19574 -4.34815,-2.60894 -5.65261,-7.50065 l -0.76091,-3.69604 q -0.65243,-3.36983 -2.93506,-5.97876 -2.28279,-2.60892 -5.65269,-3.58725 l -6.52233,-0.10847 q -3.36981,0.97833 -5.76132,3.36983 -1.73931,2.06545 -4.45694,2.3915 -2.71764,0.54316 -5.00043,-0.86962 -2.50022,-1.30446 -5.10915,-1.52188 -2.71763,-0.32621 -5.21784,0.7609 -2.60893,0.97833 -4.45695,2.93507 -1.95665,1.95665 -2.71764,4.67429 -10.109561,30.65491 -14.349081,38.5904 -3.26112,6.08746 -10.000854,8.0442 -6.631026,1.95665 -12.827203,-1.30447 -5.978835,-3.3699 -8.0442,-10.10964 -1.956735,-6.52232 1.413174,-12.60978 6.848451,-12.7185 49.134734,-62.72292 1.84802,-2.17408 2.5002,-4.783 0.76091,-2.71764 0.10847,-5.43528 -0.43468,-2.60893 -2.06536,-4.89171 -1.7393,-2.17416 -4.13081,-3.36991 l -1.19559,-0.86953 q -3.478541,-2.39151 -7.500631,-2.17416 -4.13082,0.10846 -7.2833,2.82634 -28.372044,23.80647 -54.243874,31.85067 -6.304889,1.84794 -12.175012,-1.19575 -5.761329,-3.15249 -7.718065,-9.34866 -1.9566528,-6.41361 1.087039,-12.17502 3.043774,-5.87004 9.457375,-7.82677 9.239951,-2.82635 19.893077,-4.13081 3.695964,-0.43469 6.522313,-2.93499 2.826349,-2.50021 3.695964,-6.08754 0.869614,-3.69597 -0.434684,-7.17459 -1.413175,-3.58725 -4.565578,-5.76132 -4.239524,-2.93506 -6.19626,-7.82679 -1.84794,-5.10913 -0.434684,-10.4357 1.848024,-6.63102 7.826776,-10.00093 6.087549,-3.36983 12.718574,-1.52181 l 5.543904,1.73923"
       id="path1-3"
       style="fill:#ffffff;stroke-width:2.1741" />
  </g>
</svg>
