<?xml version="1.0" encoding="UTF-8" standalone="no"?>
<!-- Created with Inkscape (http://www.inkscape.org/) -->

<svg
   width="1024"
   height="1024"
   viewBox="0 0 270.93333 270.93333"
   version="1.1"
   id="svg1"
   inkscape:version="1.3.2 (091e20e, 2023-11-25, custom)"
   sodipodi:docname="splat_1.svg"
   xmlns:inkscape="http://www.inkscape.org/namespaces/inkscape"
   xmlns:sodipodi="http://sodipodi.sourceforge.net/DTD/sodipodi-0.dtd"
   xmlns="http://www.w3.org/2000/svg"
   xmlns:svg="http://www.w3.org/2000/svg">
  <sodipodi:namedview
     id="namedview1"
     pagecolor="#ffffff"
     bordercolor="#000000"
     borderopacity="0.25"
     inkscape:showpageshadow="2"
     inkscape:pageopacity="0.0"
     inkscape:pagecheckerboard="true"
     inkscape:deskcolor="#d1d1d1"
     inkscape:document-units="px"
     inkscape:zoom="0.72426347"
     inkscape:cx="396.26464"
     inkscape:cy="561.25984"
     inkscape:window-width="1920"
     inkscape:window-height="1009"
     inkscape:window-x="1912"
     inkscape:window-y="-8"
     inkscape:window-maximized="1"
     inkscape:current-layer="layer1" />
  <defs
     id="defs1" />
  <g
     inkscape:label="Layer 1"
     inkscape:groupmode="layer"
     id="layer1">
    <path
       stroke="none"
       fill="#ffcc00"
       d="m 87.080632,68.318068 q 2.9683,2.764 6.9602,3.276 4.0943,0.512 7.676698,-1.433 3.5825,-1.945 5.3225,-5.63 1.8425,-3.685 1.0236,-7.677 -1.74,-10.235 -0.5118,-20.778 0.6142,-6.346 5.6296,-10.235 5.0154,-4.095 11.3615,-3.378 6.3461,0.716 10.338,5.732 4.0943,5.015 3.3778,11.361 l -4.5037,39.919 q -0.6141,4.402 1.7401,8.086 2.3542,3.685 6.4484,5.323 4.0943,1.433 8.1885,0.102 4.1967,-1.33 6.6532,-5.015 12.8969,-19.141 34.2894,-27.534 l 11.7709,0.307 q 5.8343,2.559 8.1885,8.496 1.5353,3.992 0.8189,7.983 -0.5114,3.992 -3.0707,7.165 -2.6613,3.378 -2.6613,7.575 -0.1022,4.196 2.3542,7.676 2.4565,3.481002 6.5508,4.709002 l 7.9838,-0.205 q 8.8026,-3.071 18.0147,-3.992 6.4485,-0.512002 11.3616,3.583 4.9131,3.992 5.5272,10.338 0.5122,6.448 -3.4801,11.361 -4.0943,4.913 -10.4403,5.527 l -18.4242,1.638 q -3.1731,0.205 -5.8343,2.047 -2.6613,1.74 -4.1966,4.504 l -1.8424,2.866 q -2.1495,2.354 -2.7637,5.63 -0.6143,3.173 0.3072,6.243 0.9212,3.071 3.2754,5.425 2.3542,2.15 5.4249,3.071 16.5817,4.504 29.888,16.479 4.606,4.402 4.9131,10.748 0.3072,6.448 -3.9919,11.054 -4.2989,4.811 -10.7474,5.016 -6.3461,0.307 -11.0545,-3.992 l -8.1885,-7.472 q -2.8659,-2.662 -6.6531,-3.276 -3.8896,-0.512 -7.3697,1.229 -3.5824,1.637 -5.5273,5.015 -1.9447,3.378 -1.6376,7.267 0.3072,4.299 -1.5354,8.086 -1.8424,3.89 -5.5272,6.244 -5.4249,3.378 -11.6686,2.047 -6.2438,-1.433 -9.6215,-6.755 l -8.7003,-13.614 q -2.4565,-3.992 -7.0626,-5.322 -4.5037,-1.433 -8.8026,0.614 -4.299,1.945 -6.3461,6.244 -1.9448,4.196 -0.6141,8.802 3.173,10.85 2.866,22.723 -0.2048,6.449 -4.9131,10.85 -4.6061,4.401 -11.0545,4.197 -6.3461,-0.307 -10.7474,-4.913 -4.4013,-4.606 -4.1966,-11.055 l 0.8188,-24.668 q 0.1024,-3.992 -2.0471,-7.369 -2.1495,-3.378 -5.9367,-4.811 -3.6848,-1.535 -7.574298,-0.614 -3.8896,1.023 -6.5508,3.992 -6.7556,7.676 -15.6606,13.204 -5.4248,3.48 -11.6686,2.047 -6.2437,-1.433 -9.6215,-6.858 -3.4801,-5.323 -2.0471,-11.566 1.433,-6.244 6.8579,-9.724 l 36.5412,-23.03 q 4.9131,-2.969 5.834298,-8.598 0.9212,-5.63 -2.661298,-10.031 l -3.2754,-5.016 q -2.5589,-4.913 -7.8814,-6.346 -5.3225,-1.433 -10.0309,1.433 -23.9514,14.842 -50.564,10.748 -6.3461,-0.922 -10.2357,-6.039 -3.7871,-5.221 -2.7636,-11.464 0.9212,-6.346 6.1414,-10.134 5.1178,-3.787 11.4639,-2.865 l 35.0058,5.424 q 4.5037,0.717 8.3933,-1.535 3.8895,-2.354 5.5272,-6.551 1.5353,-4.196 0.1024,-8.495 -1.5354,-4.299002 -5.3226,-6.653002 -5.8343,-3.685 -10.8497,-8.394 -4.7084,-4.401 -5.0155,-10.747 -0.2047,-6.449 4.1966,-11.055 4.299,-4.708 10.7474,-4.913 6.3461,-0.307 10.9522,4.095 l 2.5589,2.251"
       id="path1"
       style="fill:#ffffff;stroke-width:2.04712" />
  </g>
</svg>
