<?xml version="1.0" encoding="UTF-8" standalone="no"?>
<!-- Created with Inkscape (http://www.inkscape.org/) -->

<svg
   width="1024"
   height="1024"
   viewBox="0 0 270.93333 270.93333"
   version="1.1"
   id="svg1"
   sodipodi:docname="splat_2.svg"
   inkscape:version="1.3.2 (091e20e, 2023-11-25, custom)"
   xmlns:inkscape="http://www.inkscape.org/namespaces/inkscape"
   xmlns:sodipodi="http://sodipodi.sourceforge.net/DTD/sodipodi-0.dtd"
   xmlns="http://www.w3.org/2000/svg"
   xmlns:svg="http://www.w3.org/2000/svg">
  <sodipodi:namedview
     id="namedview1"
     pagecolor="#ffffff"
     bordercolor="#000000"
     borderopacity="0.25"
     inkscape:showpageshadow="2"
     inkscape:pageopacity="0.0"
     inkscape:pagecheckerboard="true"
     inkscape:deskcolor="#d1d1d1"
     inkscape:document-units="px"
     inkscape:zoom="0.72426347"
     inkscape:cx="395.57428"
     inkscape:cy="561.25984"
     inkscape:window-width="1920"
     inkscape:window-height="1009"
     inkscape:window-x="1912"
     inkscape:window-y="-8"
     inkscape:window-maximized="1"
     inkscape:current-layer="layer1" />
  <defs
     id="defs1" />
  <g
     inkscape:label="Layer 1"
     inkscape:groupmode="layer"
     id="layer1">
    <path
       stroke="none"
       fill="#ffcc00"
       d="m 36.704619,72.386676 q 4.7932,-0.467487 8.06667,-3.974877 3.15656,-3.624218 3.03963,-8.417418 l -0.11664,-2.104399 q 0.11664,-17.185496 12.27538,-29.344049 12.15855,-12.158464 29.34405,-12.158464 16.133431,0 27.941141,10.755562 11.80781,10.755648 13.44454,26.421325 0.58414,5.494786 5.14395,8.651251 l 0.35084,0.234185 1.05215,0.935328 q 4.32562,3.507213 9.70349,2.571974 5.49461,-0.935327 8.41733,-5.611612 3.39039,-5.611613 9.11891,-9.001998 5.96228,-3.273381 12.85988,-3.273381 5.37787,0 10.40489,2.221226 4.7933,2.10431 8.41743,5.962359 2.22122,2.455059 5.37778,3.390298 l 6.31311,0.234186 9.35266,-1.052155 q 17.18558,0 29.34404,12.158463 12.27538,12.158552 12.27538,29.46097 0,9.8203 -4.32563,18.47156 -4.20871,8.53433 -11.69079,14.37977 -3.15656,2.45506 -4.20871,6.31302 -1.16908,3.85805 0.35083,7.5991 1.63665,4.20871 1.63665,9.00199 0,9.23575 -5.72853,16.36718 -5.84536,7.01452 -14.61352,8.88509 -4.55946,0.93523 -7.24834,4.79319 -2.6889,3.85805 -2.22123,8.41742 l 0.2333,2.8058 q 0,10.63874 -7.59901,18.23775 -7.59909,7.48218 -18.23774,7.48218 -10.63873,0 -18.23774,-7.48218 -7.48218,-7.48209 -7.59909,-18.12082 0,-5.37779 -3.97488,-8.885 -3.97488,-3.62422 -9.46958,-3.03964 l -9.82031,-0.81832 -7.59901,0.46749 q -3.74113,1.63664 -5.84545,5.02702 -2.10439,3.50731 -1.63673,7.48218 0.35083,4.0918 3.15655,7.01452 6.8976,7.36518 6.8976,17.41933 0,10.63873 -7.59909,18.23774 -7.59901,7.59909 -18.23774,7.59909 -10.638651,0 -18.237741,-7.59909 -7.59901,-7.59901 -7.59901,-18.23774 l 0.11665,-1.87048 q 0.35084,-3.27347 -1.16907,-6.31311 -1.51982,-3.03964 -4.32562,-4.91011 -2.80581,-1.75366 -6.07928,-1.87057 -3.39039,-0.23418 -6.31311,1.4029 -5.72844,3.03964 -12.15846,3.03964 -10.63864,0 -18.23774,-7.5991 -7.59909,-7.59901 -7.59909,-18.23773 0,-10.63864 7.59909,-18.23774 7.5991,-7.59901 18.23774,-7.59901 l 5.02712,0.58414 q 4.67628,0.93524 8.88499,-1.63674 4.09179,-2.57197 5.26087,-7.24835 l 0.70167,-2.22122 q 1.63673,-3.97497 0.35084,-8.18368 -1.4029,-4.20871 -5.14395,-6.54685 -3.97488,-2.45506 -6.78069,-6.66377 -2.1044,-3.15655 -5.72853,-4.44254 l -7.24834,-0.46748 -5.61162,0.58413 q -10.75556,0 -18.23773,-7.59909 -7.59901,-7.48209 -7.59901,-18.237731 0,-9.937236 6.78068,-17.302411 6.78068,-7.365262 16.60101,-8.300502"
       id="path1-8"
       style="fill:#ffffff;stroke-width:2.33817" />
  </g>
</svg>
