<?xml version="1.0" encoding="UTF-8" standalone="no"?>
<!-- Created with Inkscape (http://www.inkscape.org/) -->

<svg
   width="2048"
   height="2048"
   viewBox="0 0 541.86668 541.86668"
   version="1.1"
   id="svg1"
   xml:space="preserve"
   inkscape:version="1.3.2 (091e20e, 2023-11-25, custom)"
   sodipodi:docname="splats_atlas_white.svg"
   xmlns:inkscape="http://www.inkscape.org/namespaces/inkscape"
   xmlns:sodipodi="http://sodipodi.sourceforge.net/DTD/sodipodi-0.dtd"
   xmlns="http://www.w3.org/2000/svg"
   xmlns:svg="http://www.w3.org/2000/svg"><sodipodi:namedview
     id="namedview1"
     pagecolor="#ffffff"
     bordercolor="#000000"
     borderopacity="0.25"
     inkscape:showpageshadow="2"
     inkscape:pageopacity="0.0"
     inkscape:pagecheckerboard="true"
     inkscape:deskcolor="#d1d1d1"
     inkscape:document-units="px"
     inkscape:zoom="0.36213173"
     inkscape:cx="1292.3474"
     inkscape:cy="1064.5297"
     inkscape:window-width="1920"
     inkscape:window-height="1009"
     inkscape:window-x="1912"
     inkscape:window-y="-8"
     inkscape:window-maximized="1"
     inkscape:current-layer="layer2"
     showguides="true"
     labelstyle="default" /><defs
     id="defs1" /><g
     inkscape:groupmode="layer"
     id="layer2"
     inkscape:label="Molduras" /><g
     inkscape:label="Layer 1"
     inkscape:groupmode="layer"
     id="layer1"><path
       stroke="none"
       fill="#ffcc00"
       d="m 87.080727,68.318594 q 2.968326,2.763616 6.960225,3.275399 4.094254,0.511814 7.676718,-1.432985 3.58247,-1.944769 5.32253,-5.629595 1.84241,-3.684826 1.02357,-7.676725 -1.74006,-10.235632 -0.51182,-20.778328 0.61418,-6.346095 5.6296,-10.235631 5.01545,-4.094254 11.36154,-3.377754 6.3461,0.716462 10.33799,5.73195 4.09425,5.015457 3.37776,11.361551 l -4.50367,39.918952 q -0.6141,4.40132 1.74005,8.086146 2.35419,3.684826 6.44845,5.322529 4.09425,1.432986 8.1885,0.102363 4.19664,-1.330631 6.65319,-5.015457 12.89686,-19.140624 34.28935,-27.533842 l 11.77094,0.307088 q 5.83429,2.558906 8.18848,8.495573 1.53536,3.991891 0.8189,7.983791 -0.51142,3.991891 -3.07072,7.164934 -2.66128,3.377762 -2.66128,7.574371 -0.10213,4.196609 2.35419,7.676717 2.45655,3.480119 6.55083,4.708389 l 7.98382,-0.20472 q 8.80258,-3.07069 18.01469,-3.9919 6.44846,-0.511815 11.36156,3.58247 4.9131,3.9919 5.5272,10.33799 0.5122,6.44845 -3.4801,11.36155 -4.09427,4.9131 -10.4403,5.52724 l -18.42413,1.63769 q -3.17309,0.20473 -5.83437,2.04713 -2.66127,1.74006 -4.19656,4.50368 l -1.84245,2.86598 q -2.14947,2.35419 -2.76364,5.62959 -0.61433,3.17304 0.30716,6.24374 0.92119,3.07069 3.27546,5.42488 2.35418,2.14948 5.42483,3.07069 16.58176,4.50368 29.88807,16.47936 4.60601,4.40132 4.9131,10.74741 0.30716,6.44845 -3.99192,11.05448 -4.29892,4.81074 -10.74739,5.01545 -6.3461,0.30709 -11.05448,-3.99189 l -8.18855,-7.47201 q -2.86593,-2.66126 -6.65311,-3.2754 -3.88956,-0.51181 -7.36966,1.22828 -3.58246,1.6377 -5.52728,5.01546 -1.94473,3.37775 -1.63764,7.26729 0.30716,4.29896 -1.53537,8.08614 -1.84245,3.88954 -5.52727,6.24374 -5.42484,3.37775 -11.66858,2.04712 -6.24374,-1.43299 -9.62148,-6.75551 l -8.70029,-13.61339 q -2.45655,-3.99189 -7.06257,-5.32252 -4.50372,-1.43299 -8.80267,0.6141 -4.29896,1.94477 -6.34609,6.24373 -1.94477,4.19661 -0.6141,8.80264 3.17305,10.84977 2.86598,22.72309 -0.20473,6.44845 -4.9131,10.84977 -4.60603,4.40132 -11.05448,4.19661 -6.34609,-0.30709 -10.74742,-4.9131 -4.40131,-4.60604 -4.1966,-11.05449 l 0.81885,-24.66785 q 0.10236,-3.9919 -2.04712,-7.36966 -2.14949,-3.37775 -5.93667,-4.81074 -3.68483,-1.53535 -7.574364,-0.6141 -3.889544,1.02356 -6.550805,3.99189 -6.755516,7.67673 -15.660516,13.20396 -5.424877,3.48011 -11.668617,2.04713 -6.243725,-1.433 -9.621486,-6.85787 -3.480116,-5.32253 -2.047123,-11.56626 1.432985,-6.24373 6.857862,-9.72385 L 94.75753,163.20289 q 4.913102,-2.96833 5.83431,-8.59793 0.92121,-5.6296 -2.661267,-10.03092 l -3.275398,-5.01545 q -2.558906,-4.91311 -7.881436,-6.34609 -5.32253,-1.433 -10.030914,1.43298 -23.951371,14.84166 -50.564003,10.74742 -6.346095,-0.92121 -10.235631,-6.03902 -3.787181,-5.22018 -2.763624,-11.46391 0.921211,-6.34609 6.141377,-10.13327 5.11782,-3.78719 11.463907,-2.86598 l 35.00585,5.42489 q 4.503674,0.71646 8.393219,-1.53535 3.889536,-2.3542 5.527239,-6.5508 1.53534,-4.19661 0.102363,-8.49557 -1.535348,-4.298966 -5.32253,-6.653162 -5.834312,-3.684827 -10.849769,-8.393218 -4.708392,-4.401319 -5.015457,-10.747406 -0.204725,-6.44845 4.19661,-11.05448 4.298964,-4.708391 10.747406,-4.913101 6.346095,-0.307089 10.952124,4.094246 l 2.558906,2.251841"
       id="path1"
       style="stroke-width:2.04712;fill:#ffffff" /><path
       stroke="none"
       fill="#ffcc00"
       d="m 325.84663,339.87109 q 4.37961,1.98131 8.96787,0.93847 4.69246,-1.14704 7.71646,-4.90103 3.02408,-3.6497 3.23265,-8.34216 0.20888,-4.69247 -2.50266,-8.65502 l -2.81551,-4.37969 q -1.87695,-3.33686 -0.93848,-6.98655 0.93848,-3.75399 4.27534,-5.73523 3.33692,-1.87703 7.09091,-0.93856 3.6497,0.93856 5.63094,4.27541 6.36093,10.94911 10.63633,26.59076 1.35562,5.42237 6.15237,8.44645 4.79674,2.9198 10.3234,1.77267 5.52674,-1.04276 8.75931,-5.73523 3.23264,-4.48389 2.50265,-10.11491 l -1.14704,-11.47053 q 0,-4.4839 3.23265,-7.71654 3.12828,-3.23257 7.61225,-3.23257 4.4839,0 7.71654,3.23257 3.23257,3.23264 3.23257,7.71654 l -1.04276,10.63634 q -0.72991,5.21388 2.1898,9.69778 2.9198,4.48389 8.1336,5.8395 5.1096,1.4599 9.90635,-0.93847 4.79683,-2.29409 6.88235,-7.09084 l 1.66846,-3.54542 q 1.66839,-3.5455 5.3181,-4.69254 l 7.09092,0.41698 q 2.91971,1.56418 4.27532,4.58826 1.35561,2.91971 0.52182,6.15236 -1.14705,4.4839 0.52102,8.65501 1.66847,4.37962 5.52674,6.778 3.85826,2.50265 8.44645,2.29416 4.69246,-0.31293 8.13368,-3.23264 10.63626,-8.55074 14.91166,-11.05339 3.96255,-2.18981 8.23788,-1.04277 4.37969,1.25133 6.5695,5.1096 2.29409,3.85827 1.14704,8.23788 -1.14704,4.37969 -5.00532,6.5695 -6.98655,3.96256 -34.93292,13.8689 -4.90103,1.77268 -7.50797,6.25665 -2.60695,4.4839 -1.66847,9.5935 0.93855,5.10959 4.90103,8.44645 4.06684,3.33692 9.28073,3.23264 l 9.48921,0.41698 q 3.75399,0.31293 6.25665,3.33685 2.50265,2.91971 2.08559,6.67371 -0.31293,3.85826 -3.23264,6.25664 -3.024,2.39845 -6.77799,2.0856 l -1.98132,-0.10405 q -3.85827,-0.41698 -7.40369,1.14705 -3.6497,1.56418 -5.8395,4.79674 -2.2941,3.23257 -2.50266,7.19513 -0.31294,3.85826 1.4599,7.40368 1.04276,1.77276 0,3.5455 -0.72992,1.14705 -1.66847,1.56411 -5.31817,2.29408 -7.50798,7.9251 -1.98123,5.63095 0.41698,10.94911 1.14705,2.39838 0.8342,5.00532 -0.31294,2.71123 -2.08552,4.79675 -2.50266,2.91979 -6.25665,3.23264 -3.85827,0.31294 -6.77806,-2.0856 l -4.58818,-4.17104 q -3.33693,-3.23265 -7.82083,-3.96255 -4.48389,-0.62587 -8.65502,1.45989 -4.06684,2.08552 -6.04808,6.15236 -2.08552,4.06684 -1.45989,8.65502 1.77274,11.47053 1.77274,16.26728 0,5.94379 -4.17111,10.11491 -4.17113,4.17104 -10.21921,4.17104 -5.8395,0 -10.01063,-4.17104 -4.27532,-4.06683 -4.27532,-10.11491 l 0.31293,-4.48397 q 0.31292,-4.06677 -1.4599,-7.61218 -1.87703,-3.64971 -5.21389,-5.73531 -3.44113,-2.08552 -7.50797,-2.08552 -4.06684,0 -7.50798,2.08552 -2.60694,1.66847 -5.8395,1.35562 -3.23265,-0.41699 -5.52674,-2.71123 -2.18981,-2.18981 -2.50266,-5.10961 -0.52102,-3.6497 -2.81551,-6.56941 -2.1898,-3.02408 -5.63093,-4.48398 -3.33686,-1.56418 -7.09084,-1.04276 -3.64971,0.31294 -6.67379,2.39838 l -3.85827,2.50266 q -5.1096,3.02407 -10.84482,1.4599 -5.73531,-1.56419 -8.7593,-6.67379 -2.9198,-5.1096 -1.35561,-10.84482 1.56417,-5.73523 6.56949,-8.75931 3.75399,-2.18981 13.34748,-5.94379 4.79675,-1.87703 7.2994,-6.5695 2.39839,-4.69246 1.25134,-9.80206 -1.14705,-5.1096 -5.42245,-8.23796 -4.27534,-3.12829 -9.48921,-2.71123 l -3.12837,0.20889 q -3.85819,0.10405 -6.6737,-2.50266 -2.81551,-2.60687 -2.91979,-6.36085 -0.20889,-2.9198 1.45989,-5.42246 3.33685,-5.00531 1.98124,-10.84482 -1.14705,-5.83951 -6.36093,-8.96787 -6.77799,-4.17113 -8.65502,-11.88758 -1.87695,-7.82083 2.18989,-14.70318 3.75398,-6.36093 10.84482,-8.65502 7.09084,-2.29409 13.76462,0.62586"
       id="path1-2"
       style="stroke-width:2.08554;fill:#ffffff" /><path
       stroke="none"
       fill="#ffcc00"
       d="m 65.734976,365.37836 8.69639,-0.43468 q 4.348237,-1.84795 6.19626,-6.08747 1.956653,-4.23953 0.434684,-8.58776 -1.413175,-4.56558 -5.435275,-6.84837 -15.653553,-8.80519 -25.871912,-19.02346 -4.13073,-4.13073 -4.239442,-10.10957 -0.108466,-5.87004 4.130812,-10.00085 4.130731,-4.23952 10.109565,-4.34824 5.761329,0 10.000854,4.13081 8.913814,8.58768 16.849303,21.5236 1.956735,2.93506 5.217851,4.45695 3.261198,1.52188 6.739739,1.08704 3.587255,-0.54315 6.304885,-2.82635 2.71763,-2.3915 3.58733,-5.76133 0.65244,-2.39151 2.50022,-4.0221 1.73923,-1.73931 4.1308,-2.3915 3.69597,-0.97841 6.95708,0.86961 3.36992,1.95674 4.34824,5.6527 l 1.52189,8.91381 q 0.54397,4.45687 3.91339,7.50065 3.36983,3.04377 8.0442,3.04377 4.45686,0 7.93541,-2.82635 3.3699,-3.04378 4.02218,-7.50064 l 0.54315,-3.36991 q 0.65243,-3.1524 3.47862,-4.89172 2.60892,-1.84802 5.87004,-1.19574 3.15248,0.65243 5.00043,3.36983 1.84802,2.71763 1.19574,5.97883 -1.63051,7.71807 -5.5439,16.95801 -1.95674,4.34815 -0.43468,8.80511 1.52188,4.56566 5.65262,6.63102 4.13081,2.28279 8.80518,1.19575 4.56558,-1.08704 7.06579,-5.10914 36.95981,-56.2006 47.39551,-66.74502 5.21785,-5.10913 12.50107,-5.00043 7.39201,0 12.60986,5.10915 5.10914,5.10913 5.10914,12.50106 -0.10847,7.2833 -5.21785,12.39244 -8.80511,8.91382 -50.54791,36.74237 -2.93506,1.95666 -4.23953,5.21786 -1.41317,3.1524 -0.86962,6.73974 0.54316,3.47853 2.82628,6.08745 2.39157,2.71765 5.7614,3.58727 2.17409,0.65243 3.69597,2.39149 1.52188,1.6306 1.84802,3.91339 0.54315,3.15249 -1.30446,5.87012 -1.84802,2.60893 -5.10914,3.26113 l -18.58861,0.76089 q -3.47854,-0.21775 -6.63103,1.73931 -3.15249,1.73932 -4.67429,4.89172 -1.41318,2.60901 -3.47863,4.23952 -3.26111,2.28288 -4.34823,5.97884 -1.19576,3.80467 0.10846,7.50064 l 0.54398,2.3915 q 0.32622,4.34823 3.36983,7.50072 3.04377,3.04369 7.392,3.47854 29.35038,2.93506 49.89573,12.39235 6.52231,3.04378 9.02253,9.89223 2.39149,6.63103 -0.65245,13.15334 -2.93506,6.52231 -9.78342,9.02252 -6.63103,2.39151 -13.26205,-0.65243 -13.47948,-6.30489 -27.28501,-17.39287 -3.15249,-2.50021 -7.06588,-2.60892 -4.13081,-0.21775 -7.39192,2.17408 -3.36991,2.28286 -4.67438,6.19625 -1.08704,3.9134 0.10847,7.60935 l 0.65244,1.84795 q 1.30446,4.8918 -1.30447,9.23995 -2.3915,4.45695 -7.392,5.76141 -4.78301,1.30446 -9.23996,-1.19574 -4.34815,-2.60894 -5.65261,-7.50065 l -0.76091,-3.69604 q -0.65243,-3.36983 -2.93506,-5.97876 -2.28279,-2.60892 -5.65269,-3.58725 l -6.52233,-0.10847 q -3.36981,0.97833 -5.76132,3.36983 -1.73931,2.06545 -4.45694,2.3915 -2.71764,0.54316 -5.00043,-0.86962 -2.50022,-1.30446 -5.10915,-1.52188 -2.71763,-0.32621 -5.21784,0.7609 -2.60893,0.97833 -4.45695,2.93507 -1.95665,1.95665 -2.717639,4.67429 -10.109562,30.65491 -14.349086,38.5904 -3.261116,6.08746 -10.000853,8.0442 -6.631026,1.95665 -12.827203,-1.30447 -5.978835,-3.3699 -8.0442,-10.10964 -1.956735,-6.52232 1.413174,-12.60978 6.848451,-12.7185 49.134737,-62.72292 1.84802,-2.17408 2.5002,-4.783 0.76091,-2.71764 0.10847,-5.43528 -0.43468,-2.60893 -2.06536,-4.89171 -1.7393,-2.17416 -4.13081,-3.36991 l -1.19559,-0.86953 q -3.478541,-2.39151 -7.500637,-2.17416 -4.130813,0.10846 -7.283298,2.82634 -28.372043,23.80647 -54.243873,31.85067 -6.304889,1.84794 -12.175012,-1.19575 -5.761329,-3.15249 -7.718065,-9.34866 -1.9566529,-6.41361 1.087039,-12.17502 3.043774,-5.87004 9.457375,-7.82677 9.239951,-2.82635 19.893077,-4.13081 3.695964,-0.43469 6.522313,-2.93499 2.826349,-2.50021 3.695964,-6.08754 0.869614,-3.69597 -0.434684,-7.17459 -1.413175,-3.58725 -4.565578,-5.76132 -4.239524,-2.93506 -6.19626,-7.82679 -1.84794,-5.10913 -0.434684,-10.4357 1.848024,-6.63102 7.826776,-10.00093 6.087549,-3.36983 12.718574,-1.52181 l 5.543904,1.73923"
       id="path1-3"
       style="stroke-width:2.1741;fill:#ffffff" /><path
       stroke="none"
       fill="#ffcc00"
       d="m 307.02752,75.609157 q 4.7932,-0.467487 8.06667,-3.974877 3.15656,-3.624218 3.03963,-8.417418 l -0.11664,-2.104399 q 0.11664,-17.185496 12.27538,-29.344049 12.15855,-12.158464 29.34405,-12.158464 16.13343,0 27.94114,10.755562 11.80781,10.755648 13.44454,26.421325 0.58414,5.494786 5.14395,8.651251 l 0.35084,0.234185 1.05215,0.935328 q 4.32562,3.507213 9.70349,2.571974 5.49461,-0.935327 8.41733,-5.611612 3.39039,-5.611613 9.11891,-9.001998 5.96228,-3.273381 12.85988,-3.273381 5.37787,0 10.40489,2.221226 4.7933,2.10431 8.41743,5.962359 2.22122,2.455059 5.37778,3.390298 l 6.31311,0.234186 9.35266,-1.052155 q 17.18558,0 29.34404,12.158463 12.27538,12.158552 12.27538,29.460969 0,9.82031 -4.32563,18.47157 -4.20871,8.53433 -11.69079,14.37977 -3.15656,2.45506 -4.20871,6.31302 -1.16908,3.85805 0.35083,7.5991 1.63665,4.20871 1.63665,9.00199 0,9.23575 -5.72853,16.36718 -5.84536,7.01452 -14.61352,8.88509 -4.55946,0.93523 -7.24834,4.79319 -2.6889,3.85805 -2.22123,8.41742 l 0.2333,2.8058 q 0,10.63874 -7.59901,18.23775 -7.59909,7.48218 -18.23774,7.48218 -10.63873,0 -18.23774,-7.48218 -7.48218,-7.48209 -7.59909,-18.12082 0,-5.37779 -3.97488,-8.885 -3.97488,-3.62422 -9.46958,-3.03964 l -9.82031,-0.81832 -7.59901,0.46749 q -3.74113,1.63664 -5.84545,5.02702 -2.10439,3.50731 -1.63673,7.48218 0.35083,4.0918 3.15655,7.01452 6.8976,7.36518 6.8976,17.41933 0,10.63873 -7.59909,18.23774 -7.59901,7.59909 -18.23774,7.59909 -10.63865,0 -18.23774,-7.59909 -7.59901,-7.59901 -7.59901,-18.23774 l 0.11665,-1.87048 q 0.35084,-3.27347 -1.16907,-6.31311 -1.51982,-3.03964 -4.32562,-4.91011 -2.80581,-1.75366 -6.07928,-1.87057 -3.39039,-0.23418 -6.31311,1.4029 -5.72844,3.03964 -12.15846,3.03964 -10.63864,0 -18.23774,-7.5991 -7.59909,-7.59901 -7.59909,-18.23773 0,-10.63864 7.59909,-18.23774 7.5991,-7.59901 18.23774,-7.59901 l 5.02712,0.58414 q 4.67628,0.93524 8.88499,-1.63674 4.09179,-2.57197 5.26087,-7.24835 l 0.70167,-2.22122 q 1.63673,-3.97497 0.35084,-8.18368 -1.4029,-4.20871 -5.14395,-6.54685 -3.97488,-2.45506 -6.78069,-6.66377 -2.1044,-3.15655 -5.72853,-4.44254 l -7.24834,-0.46748 -5.61162,0.58413 q -10.75556,0 -18.23773,-7.59909 -7.59901,-7.48209 -7.59901,-18.23774 0,-9.937236 6.78068,-17.302411 6.78068,-7.365262 16.60101,-8.300502"
       id="path1-8"
       style="stroke-width:2.33817;fill:#ffffff" /></g></svg>
